<?xml version="1.0" encoding="UTF-8"?>
<svg width="25px" height="24px" viewBox="0 0 25 24" version="1.1" xmlns="http://www.w3.org/2000/svg" xmlns:xlink="http://www.w3.org/1999/xlink">
    <title>F0A80563-984D-4AF5-BA2E-1835B845C65B@1.5x</title>
    <g id="Pago-con-Push---Web-&lt;Opción-B&gt;-" stroke="none" stroke-width="1" fill="none" fill-rule="evenodd">
        <g id="Pago-IBK-APP_Ingreso-de-DNI_notificación-alerta_no-cliente-IBK_Desktop" transform="translate(-483.000000, -474.000000)">
            <g id="04-Componentes/Feedback-y-comunicación/Notificaciones/Desktop/Box-Filled/Alerta" transform="translate(467.500000, 458.000000)">
                <g id="Notificaciones/Error/SinCaja" transform="translate(16.000000, 16.000000)">
                    <g id="Group" transform="translate(0.000000, 0.000000)">
                        <g id="icon-error" transform="translate(0.000000, 0.000000)">
                            <g id="Group" opacity="0.2">
                                <rect id="Rectangle" x="0" y="0" width="24" height="24"></rect>
                            </g>
                            <path d="M12,22.500018 C7.0198885,22.4892699 2.73966445,18.9648798 1.77350361,14.0793749 C0.807342764,9.19386987 3.42386819,4.30557387 8.02501931,2.40004663 C12.6261704,0.494519402 17.9326827,2.10155739 20.7035678,6.23965129 C23.474453,10.3777452 22.9393179,15.8963749 19.425,19.425 C17.4585291,21.3982967 14.7858357,22.5051697 12,22.500018 L12,22.500018 Z M12,2.99998145 C7.73496935,3.01016315 4.07000117,6.02929416 3.24345016,10.213479 C2.41689915,14.3976639 4.65856578,18.5836017 8.59936721,20.2147588 C12.5401686,21.845916 17.0844701,20.468793 19.45687,16.9244583 C21.8292699,13.3801236 21.3701857,8.65398501 18.36,5.6325 C16.6753765,3.94273278 14.3860524,2.99514695 12,2.99998145 Z M13.0275,12 L16.2525,8.7825 C16.5465916,8.48840837 16.5465916,8.01159163 16.2525,7.71750001 C15.9584084,7.42340838 15.4815916,7.42340838 15.1875,7.7175 L12,10.9425 L8.7825,7.7175 C8.48840837,7.42340839 8.01159164,7.4234084 7.71750002,7.71750002 C7.4234084,8.01159164 7.42340839,8.48840837 7.7175,8.7825 L10.9425,12 L7.7175,15.2175 C7.57551551,15.3583249 7.49565126,15.5500218 7.49565126,15.75 C7.49565126,15.9499782 7.57551551,16.1416751 7.7175,16.2825 C7.85832495,16.4244845 8.05002185,16.5043487 8.25,16.5043487 C8.44997815,16.5043487 8.64167505,16.4244845 8.7825,16.2825 L12,13.0575 L15.2175,16.2825 C15.3583249,16.4244845 15.5500218,16.5043487 15.75,16.5043487 C15.9499782,16.5043487 16.1416751,16.4244845 16.2825,16.2825 C16.4244845,16.1416751 16.5043487,15.9499782 16.5043487,15.75 C16.5043487,15.5500218 16.4244845,15.3583249 16.2825,15.2175 L13.0275,12 Z" id="Shape" fill="#EB0046"></path>
                        </g>
                    </g>
                </g>
            </g>
        </g>
    </g>
</svg>