<?xml version="1.0" encoding="UTF-8"?>
<svg width="24px" height="24px" viewBox="0 0 24 24" version="1.1" xmlns="http://www.w3.org/2000/svg" xmlns:xlink="http://www.w3.org/1999/xlink">
    <title>D5A33F04-BCDA-4025-9BD0-C10764EEA981@1.5x</title>
    <g id="APP_Pasarela-de-pago" stroke="none" stroke-width="1" fill="none" fill-rule="evenodd">
        <g id="APP_Pasarela_de_pago_TC/TD_Formulario_07" transform="translate(-311.000000, -434.000000)">
            <g id="Input/Mobile/Label/Empty-Copy" transform="translate(224.000000, 396.000000)">
                <g id="Icon-info" transform="translate(87.000000, 38.000000)">
                    <g id="Group" opacity="0.2">
                        <rect id="Rectangle" x="0" y="0" width="24" height="24"></rect>
                    </g>
                    <g id="Group-7" transform="translate(1.500000, 1.500000)" fill="#64B4E6">
                        <path d="M16.892175,16.865475 C15.193425,18.564975 12.932925,19.500225 10.526925,19.500225 C8.120925,19.500225 5.859675,18.564975 4.160925,16.865475 C2.444925,15.149475 1.500675,12.888975 1.500675,10.500225 C1.500675,8.109975 2.444925,5.849475 4.160925,4.134225 C5.859675,2.435475 8.120925,1.500225 10.526925,1.500225 C12.932925,1.500225 15.193425,2.435475 16.892175,4.134225 C18.573675,5.815725 19.499925,8.075475 19.499925,10.500225 C19.499925,12.923475 18.573675,15.183975 16.892175,16.865475 M17.952675,3.073725 C15.970425,1.091475 13.333425,0.000225 10.526925,0.000225 C7.720425,0.000225 5.082675,1.091475 3.100425,3.073725 C1.100925,5.071725 0.000675,7.709475 0.000675,10.500225 C0.000675,13.289475 1.100925,15.927225 3.100425,17.925975 C5.082675,19.908975 7.720425,21.000225 10.526925,21.000225 C13.333425,21.000225 15.970425,19.908975 17.952675,17.925975 C19.917675,15.961725 20.999925,13.323975 20.999925,10.500225 C20.999925,7.674975 19.917675,5.037225 17.952675,3.073725" id="Fill-1"></path>
                        <path d="M10.5,4.5 C9.879,4.5 9.375,5.004 9.375,5.625 C9.375,6.246 9.879,6.75 10.5,6.75 C11.12175,6.75 11.625,6.246 11.625,5.625 C11.625,5.004 11.12175,4.5 10.5,4.5" id="Fill-3"></path>
                        <path d="M10.5,8.0625 C9.9825,8.0625 9.5625,8.4825 9.5625,9 L9.5625,15.75 C9.5625,16.2675 9.9825,16.6875 10.5,16.6875 C11.0175,16.6875 11.4375,16.2675 11.4375,15.75 L11.4375,9 C11.4375,8.4825 11.0175,8.0625 10.5,8.0625" id="Fill-5"></path>
                    </g>
                </g>
            </g>
        </g>
    </g>
</svg>