<?xml version="1.0" encoding="UTF-8"?>
<svg width="68px" height="68px" viewBox="0 0 68 68" version="1.1" xmlns="http://www.w3.org/2000/svg" xmlns:xlink="http://www.w3.org/1999/xlink">
    <title>02 Ilustraciones/Circulares/Simples/Canales-digitales/Promocion-generico@1.5x</title>
    <g id="V2" stroke="none" stroke-width="1" fill="none" fill-rule="evenodd">
        <g id="Desktop-3.8" transform="translate(-286.000000, -3540.000000)">
            <g id="Group-5" transform="translate(250.000000, 3528.000000)">
                <g id="Group" transform="translate(36.000000, 12.000000)">
                    <path d="M34,68 C52.7775625,68 68,52.7775625 68,34 C68,15.2224375 52.7775625,0 34,0 C15.2224375,0 0,15.2224375 0,34 C0,52.7775625 15.2224375,68 34,68" id="Path" fill="#C1E1F5"></path>
                    <path d="M24.8160333,16.6457979 C22.405575,16.6457979 19.9016167,18.4701104 19.7631375,20.8702979 C19.6197,23.3600896 21.5219292,25.5141313 24.0117208,25.6575688 L35.2147208,25.6575688 C35.2147208,25.6575688 29.826075,16.9266521 25.0862625,16.6535896 C24.9963042,16.6482771 24.9063458,16.6457979 24.8160333,16.6457979 M24.8163875,18.4166313 L24.8163875,18.4166313 C24.8727,18.4166313 24.9286583,18.4180479 24.9846167,18.4215896 C26.409075,18.5037563 28.3906375,19.9126313 30.5645125,22.3893188 C31.0111167,22.8979021 31.4262,23.4068396 31.7984292,23.8867354 L24.0690958,23.8867354 C22.5794708,23.7765896 21.4443667,22.4785688 21.5311375,20.9719438 C21.6069292,19.6586938 23.2035125,18.4166313 24.8163875,18.4166313" id="Path" fill="#0039A6"></path>
                    <path d="M42.9321542,16.6457979 C42.8418417,16.6457979 42.7518833,16.6482771 42.661925,16.6535896 C37.9221125,16.9266521 32.5334667,25.6575688 32.5334667,25.6575688 L43.7364667,25.6575688 C46.2262583,25.5141313 48.1284875,23.3600896 47.98505,20.8702979 C47.8465708,18.4701104 45.3426125,16.6457979 42.9321542,16.6457979 M42.9321542,18.4166313 C44.5450292,18.4166313 46.1412583,19.6586938 46.21705,20.9719438 C46.3038208,22.4785688 45.1687167,23.7765896 43.6790917,23.8867354 L35.9497583,23.8867354 C36.3219875,23.4068396 36.7370708,22.8979021 37.183675,22.3893188 C39.35755,19.9126313 41.3391125,18.5037563 42.7635708,18.4215896 C42.8198833,18.4180479 42.8758417,18.4166313 42.9321542,18.4166313" id="Path" fill="#0039A6"></path>
                    <path d="M31.0625417,25.1504375 L31.0625417,23.5680208 C31.0625417,22.0876042 32.2610417,20.8869792 33.7396875,20.8869792 L34.0085,20.8869792 C35.4871458,20.8869792 36.6856458,22.0876042 36.6856458,23.5680208 L36.6856458,25.1504375 L31.0625417,25.1504375 Z" id="Path" fill="#0039A6"></path>
                    <path d="M52.1589042,27.1473354 C52.2485083,25.9612313 51.3103208,24.9490229 50.120675,24.9490229 L17.6276542,24.9490229 C16.4380083,24.9490229 15.4998208,25.9612313 15.589425,27.1473354 L16.1288208,34.2930021 L51.6195083,34.2930021 L52.1589042,27.1473354 Z" id="Path" fill="#F0F0DC"></path>
                    <path d="M16.12875,34.2931083 L17.2734167,49.4525042 C17.3538125,50.5185458 18.2424167,51.3426917 19.312,51.3426917 L48.4365417,51.3426917 C49.5057708,51.3426917 50.394375,50.5185458 50.4747708,49.4525042 L51.6194375,34.2931083 L16.12875,34.2931083 Z" id="Path" fill="#05BE50"></path>
                    <path d="M37.2611667,51.3427271 L30.4866667,51.3427271 L30.4866667,24.9491646 L37.2611667,24.9491646 L37.2611667,51.3427271 Z" id="Path" fill="#0039A6"></path>
                </g>
            </g>
        </g>
    </g>
</svg>