<?xml version="1.0" encoding="UTF-8"?>
<svg width="229px" height="29px" viewBox="0 0 229 29" version="1.1" xmlns="http://www.w3.org/2000/svg" xmlns:xlink="http://www.w3.org/1999/xlink">
    <title>Group 19@1.5x</title>
    <defs>
        <polygon id="path-1" points="0 28.565 228.19 28.565 228.19 0 0 0"></polygon>
    </defs>
    <g id="Page-1" stroke="none" stroke-width="1" fill="none" fill-rule="evenodd">
        <g id="Artboard" transform="translate(-240.000000, -239.000000)">
            <g id="Group-19" transform="translate(240.000000, 239.000000)">
                <path d="M181.0103,12.7368 C178.3503,12.7408 176.4643,14.6558 176.4583,17.7658 C176.4583,20.5968 178.7183,22.3588 181.0283,22.3608 C182.4013,22.3608 183.2573,22.1468 183.7533,21.7418 L183.7533,20.1668 C183.0463,20.5148 182.2093,20.6258 181.4673,20.6258 C180.0443,20.6288 178.8983,19.8498 178.7123,18.6038 L178.6973,18.4928 L180.3593,18.4928 C181.9213,18.4928 183.0243,18.3498 183.7183,18.0058 C184.4093,17.6588 184.7113,17.1388 184.7153,16.2958 C184.7153,14.0978 182.9383,12.7388 181.0103,12.7368 L181.0103,12.7368 Z M182.0933,16.8118 C181.6623,16.9628 180.9703,17.0218 179.8473,17.0228 L178.6893,17.0228 L178.6953,16.9208 L178.7113,16.6048 C178.7643,15.4808 179.5973,14.5018 180.7993,14.5018 C181.3583,14.5018 181.8283,14.6248 182.1653,14.8778 C182.5033,15.1298 182.6943,15.5208 182.6923,16.0148 C182.7013,16.3738 182.5283,16.6668 182.0933,16.8118 L182.0933,16.8118 Z M185.8603,16.3248 L185.8603,22.1998 L188.0423,22.1998 L188.0423,16.7468 C188.0433,16.0158 188.1893,15.4898 188.4883,15.1388 C188.7883,14.7888 189.2323,14.6368 189.7773,14.6378 C189.9993,14.6378 190.1953,14.6558 190.3713,14.6868 L190.3713,12.9578 C190.0963,12.8198 189.7373,12.7308 189.2663,12.7308 C186.8223,12.7348 185.8693,14.4668 185.8603,16.3248 L185.8603,16.3248 Z M157.1683,22.1998 L159.3463,22.1998 L159.3463,10.3648 L157.1683,10.3648 L157.1683,22.1998 Z M165.2203,12.7368 C162.3133,12.7408 161.0453,14.7278 161.0383,16.6798 L161.0383,22.1998 L163.2043,22.1998 L163.2043,16.8398 C163.2043,16.1498 163.3833,15.5958 163.7063,15.2128 C164.0283,14.8298 164.4903,14.6248 165.0263,14.6258 C165.6523,14.6248 166.1643,14.8068 166.5153,15.2058 C166.8643,15.6068 167.0423,16.2058 167.0423,17.0128 L167.0453,22.1998 L169.2073,22.1998 L169.2073,16.8058 C169.2023,14.1768 167.4123,12.7418 165.2203,12.7368 L165.2203,12.7368 Z M173.0353,10.3648 L170.8803,10.3648 L170.8873,18.9038 C170.8983,21.0718 171.9903,22.3498 174.3473,22.3608 C175.3473,22.3588 175.9493,22.0348 176.1963,21.5138 L176.1963,20.1678 C175.8083,20.3398 175.2813,20.4168 174.6283,20.4168 C174.1393,20.4168 173.7323,20.2928 173.4523,19.9958 C173.1733,19.6988 173.0353,19.2498 173.0353,18.6228 L173.0353,14.6258 L174.9233,14.6258 C175.8453,14.6248 176.2333,14.0368 176.2353,13.6018 L176.2353,12.7368 L173.0353,12.7368 L173.0353,10.3648 Z M214.1903,12.7368 C211.2823,12.7408 210.0153,14.7278 210.0083,16.6798 L210.0213,22.1998 L212.1743,22.1998 L212.1743,16.8408 C212.1743,16.1498 212.3543,15.5958 212.6763,15.2128 C212.9973,14.8298 213.4613,14.6248 213.9973,14.6258 C214.6213,14.6248 215.1363,14.8068 215.4853,15.2078 C215.8353,15.6068 216.0133,16.2058 216.0133,17.0128 L216.0183,22.1998 L218.1793,22.1998 L218.1793,16.8048 C218.1743,14.1768 216.3843,12.7418 214.1903,12.7368 L214.1903,12.7368 Z M196.1313,12.7368 C194.9123,12.7368 194.1493,13.4618 193.6903,14.1308 L193.5153,14.3858 L193.5223,10.3648 L191.3723,10.3648 L191.3723,17.6978 C191.3723,20.8148 193.2463,22.3608 195.6833,22.3608 C198.4573,22.3608 200.2093,20.1748 200.2133,17.3818 C200.2093,14.6428 198.4403,12.7378 196.1313,12.7368 L196.1313,12.7368 Z M195.9243,20.5208 L195.9193,20.5208 C195.2133,20.5208 194.5723,20.3118 194.1533,19.7938 C193.7323,19.2738 193.5323,18.4598 193.5323,17.3638 C193.5353,15.8598 194.4393,14.6278 195.6833,14.6257963 C196.4053,14.6248 197.0003,14.8248 197.3993,15.3338 C197.8013,15.8388 198.0043,16.6268 198.0043,17.7838 C198.0033,19.3368 197.1503,20.5188 195.9243,20.5208 L195.9243,20.5208 Z M204.6593,12.7378 C203.3423,12.7378 202.4773,13.0918 201.8733,13.5668 L201.8733,15.0878 C202.4873,14.7958 203.2583,14.5548 204.3073,14.5548 C205.0183,14.5558 205.6363,14.6548 206.0013,14.9448 C206.3683,15.2348 206.5323,15.7058 206.5313,16.3828 L206.5313,16.6018 L205.6073,16.6018 C202.1353,16.6148 200.9893,17.8438 200.9833,19.4628 C200.9843,21.1298 202.4683,22.3568 204.6893,22.3608 L205.1663,22.3608 C207.2353,22.3558 208.6563,21.0218 208.6603,19.0788 L208.6603,16.9078 C208.6603,13.5988 206.7433,12.7518 204.6593,12.7378 L204.6593,12.7378 Z M206.5493,19.0948 C206.5493,19.5918 206.4203,19.9848 206.1453,20.2518 C205.8703,20.5158 205.4633,20.6438 204.9403,20.6438 L204.9363,20.6438 C204.4053,20.6438 203.9743,20.5308 203.6713,20.3128 C203.3673,20.0988 203.2003,19.7688 203.2023,19.3748 C203.1983,18.9698 203.3473,18.6228 203.7303,18.4068 C204.1103,18.1918 204.7003,18.0898 205.6073,18.0878 L206.5493,18.0878 L206.5493,19.0948 Z" id="Fill-1" fill="#00BE45"></path>
                <path d="M224.364,17.2878 L224.314,17.2268 L224.363,17.1678 C225.313,15.9728 227.366,13.6488 228.138,12.9508 L226.941,12.9508 C226.187,12.9528 225.666,13.0328 225.122,13.5358 C224.039,14.5608 223.143,15.7618 222.227,16.9528 L222.053,17.1808 L222.063,10.3638 L219.87,10.3638 L219.872,22.1808 L222.053,22.1858 L222.053,17.3918 L222.228,17.6248 C223.267,19.0068 224.321,20.4018 225.53,21.6378 C225.913,22.0188 226.512,22.2588 227.011,22.2558278 C227.611,22.2538 227.951,22.1028 228.19,21.8178 C227.588,21.0978 225.101,18.1888 224.364,17.2878" id="Fill-3" fill="#00BE45"></path>
                <path d="M137.4283,7.8293 C136.1823,7.8293 135.1733,8.8453 135.1733,10.0973 L135.1733,24.7293 L149.8173,24.7293 C151.0643,24.7293 152.0753,23.7133 152.0753,22.4613 L152.0773,7.8293 L137.4283,7.8293 Z M148.1273,20.0273 L139.1183,21.6553 L139.1183,12.5633 L148.1273,10.9343 L148.1273,20.0273 Z" id="Fill-5" fill="#002EA3"></path>
                <path d="M3.7493,3.9878 L3.7493,20.9608 L8.0783,20.9608 C11.0773,20.9608 13.4053,20.1998 15.0643,18.6778 C16.7463,17.1328 17.5873,15.0648 17.5873,12.4748 C17.5873,9.8838 16.7463,7.8168 15.0643,6.2718 C13.4053,4.7488 11.0773,3.9878 8.0783,3.9878 L3.7493,3.9878 Z M8.4183,24.4038 L0.0003,24.4038 L0.0003,0.5458 L8.4183,0.5458 C12.2363,0.5458 15.3603,1.6588 17.7913,3.8858 C20.2223,6.1128 21.4383,8.9758 21.4383,12.4748 C21.4383,15.9968 20.2223,18.8708 17.7913,21.0978 C15.3833,23.3018 12.2583,24.4038 8.4183,24.4038 L8.4183,24.4038 Z" id="Fill-7" fill="#002EA3"></path>
                <mask id="mask-2" fill="white">
                    <use xlink:href="#path-1"></use>
                </mask>
                <g id="Clip-10"></g>
                <path d="M25.119,24.404 L28.8,24.404 L28.8,7.669 L25.119,7.669 L25.119,24.404 Z M26.96,4.669 C26.301,4.669 25.75,4.448 25.307,4.005 C24.864,3.562 24.642,3.011 24.642,2.352 C24.642,1.693 24.864,1.137 25.307,0.682 C25.75,0.228 26.301,0 26.96,0 C27.595,0 28.136,0.228 28.579,0.682 C29.022,1.137 29.243,1.693 29.243,2.352 C29.243,3.011 29.022,3.562 28.579,4.005 C28.136,4.448 27.595,4.669 26.96,4.669 L26.96,4.669 Z" id="Fill-9" fill="#002EA3" mask="url(#mask-2)"></path>
                <polygon id="Fill-11" fill="#002EA3" mask="url(#mask-2)" points="41.8879 24.5398 38.5479 24.5398 31.0499 7.6688 35.1059 7.6688 40.3199 19.7688 45.4669 7.6688 49.3869 7.6688"></polygon>
                <path d="M55.0097,4.7717 L51.7037,4.7717 L54.9077,0.0007 L59.5087,0.0007 L55.0097,4.7717 Z M51.6697,24.4037 L55.3847,24.4037 L55.3847,7.6687 L51.6697,7.6687 L51.6697,24.4037 Z" id="Fill-12" fill="#002EA3" mask="url(#mask-2)"></path>
                <path d="M67.4842,21.6087 C68.5512,21.6087 69.5292,21.3307 70.4152,20.7737 C71.3012,20.2177 71.9832,19.4957 72.4602,18.6097 L72.4602,13.4287 C71.9832,12.5657 71.2952,11.8557 70.3982,11.2987 C69.5002,10.7417 68.5292,10.4637 67.4842,10.4637 C65.9382,10.4637 64.6552,11.0087 63.6322,12.0997 C62.6102,13.1677 62.0992,14.4747 62.0992,16.0187 C62.0992,17.5867 62.6102,18.9157 63.6322,20.0067 C64.6552,21.0747 65.9382,21.6087 67.4842,21.6087 M66.4952,24.8467 C64.1322,24.8467 62.1892,23.9947 60.6672,22.2907 C59.1442,20.6097 58.3842,18.5187 58.3842,16.0187 C58.3842,13.5427 59.1442,11.4637 60.6672,9.7817 C62.1892,8.0777 64.1322,7.2257 66.4952,7.2257 C69.0632,7.2257 71.0512,8.1347 72.4602,9.9527 L72.4602,0.5457 L76.1412,0.5457 L76.1412,24.4037 L72.4602,24.4037 L72.4602,22.1197 C71.0512,23.9377 69.0632,24.8467 66.4952,24.8467" id="Fill-13" fill="#002EA3" mask="url(#mask-2)"></path>
                <path d="M82.5826,14.3149 L91.6486,14.3149 C91.6026,13.2699 91.2056,12.3499 90.4556,11.5539 C89.6826,10.7359 88.6156,10.3269 87.2516,10.3269 C85.9566,10.3269 84.8836,10.7079 84.0316,11.4689 C83.1786,12.2309 82.6956,13.1789 82.5826,14.3149 M78.8336,16.0189 C78.8336,13.4969 79.6286,11.4069 81.2196,9.7479 C82.8326,8.0669 84.8996,7.2259 87.4226,7.2259 C89.1486,7.2259 90.6146,7.6809 91.8186,8.5889 C94.1816,10.2709 95.3636,12.7929 95.3636,16.1549 L95.3636,17.1099 L82.5486,17.1099 C82.7756,18.5189 83.4516,19.6209 84.5766,20.4159 C85.7016,21.2109 87.1266,21.6089 88.8536,21.6089 C90.7626,21.6089 92.5566,21.1089 94.2386,20.1089 L94.2386,23.2109 C92.6936,24.3009 90.6376,24.8469 88.0696,24.8469 C85.5016,24.8469 83.3096,24.0289 81.4916,22.3929 C79.7196,20.7569 78.8336,18.6319 78.8336,16.0189" id="Fill-14" fill="#002EA3" mask="url(#mask-2)"></path>
                <path d="M102.3505,24.8466 C101.0555,24.8466 100.0335,24.4886 99.2825,23.7726 C98.5335,23.0576 98.1585,21.9496 98.1585,20.4496 L98.1585,0.5456 L101.8395,0.5456 L101.8395,19.4276 C101.8395,20.7906 102.4525,21.4726 103.6795,21.4726 C104.2255,21.4726 104.6905,21.3586 105.0775,21.1316 L105.0775,24.3016 C104.3725,24.6646 103.4635,24.8466 102.3505,24.8466" id="Fill-15" fill="#002EA3" mask="url(#mask-2)"></path>
                <path d="M108.8603,22.5145 L110.8563,19.5245 C110.0953,18.5625 109.7123,17.3955 109.7123,16.0195 C109.7123,14.4295 110.2343,13.1105 111.2803,12.0655 C112.3483,10.9975 113.6663,10.4635 115.2333,10.4635 C115.7753,10.4635 116.2863,10.5335 116.7703,10.6645 L118.6803,7.8025 C117.6303,7.4195 116.4823,7.2255 115.2333,7.2255 C112.5523,7.2255 110.3483,8.0775 108.6223,9.7825 C106.8943,11.4865 106.0313,13.5655 106.0313,16.0195 C106.0313,18.4955 106.8943,20.5865 108.6223,22.2905 C108.7003,22.3675 108.7803,22.4405 108.8603,22.5145" id="Fill-16" fill="#002EA3" mask="url(#mask-2)"></path>
                <path d="M120.1788,13.5101 C120.5368,14.2541 120.7208,15.0891 120.7208,16.0191 C120.7208,17.6331 120.1978,18.9621 119.1528,20.0071 C118.0848,21.0751 116.7788,21.6091 115.2338,21.6091 C115.0808,21.6091 114.9338,21.5991 114.7858,21.5891 L112.7898,24.5801 C113.5548,24.7571 114.3688,24.8471 115.2338,24.8471 C117.8698,24.8471 120.0618,23.9941 121.8118,22.2901 C123.5378,20.5641 124.4018,18.4731 124.4018,16.0191 C124.4018,13.8151 123.7028,11.9151 122.3108,10.3161 L120.1788,13.5101 Z" id="Fill-17" fill="#002EA3" mask="url(#mask-2)"></path>
                <path d="M108.0419,28.565 C107.8799,28.565 107.7159,28.519 107.5709,28.422 C107.1809,28.162 107.0759,27.634 107.3369,27.244 L122.7279,4.186 C122.9889,3.796 123.5159,3.691 123.9049,3.952 C124.2949,4.212 124.3999,4.739 124.1399,5.129 L108.7489,28.187 C108.5849,28.432 108.3159,28.565 108.0419,28.565" id="Fill-18" fill="#00BE45" mask="url(#mask-2)"></path>
            </g>
        </g>
    </g>
</svg>