<?xml version="1.0" encoding="UTF-8"?>
<svg width="80px" height="80px" viewBox="0 0 80 80" version="1.1" xmlns="http://www.w3.org/2000/svg" xmlns:xlink="http://www.w3.org/1999/xlink">
    <title>Group@1.5x</title>
    <defs>
        <path d="M40,0 C17.9083333,0 0,17.90875 0,40 L0,40 C0,62.09125 17.9083333,80 40,80 L40,80 C62.09125,80 80,62.09125 80,40 L80,40 C80,17.90875 62.09125,0 40,0 Z" id="path-1"></path>
        <path d="M40,0 C17.9083333,0 0,17.90875 0,40 L0,40 C0,62.09125 17.9083333,80 40,80 L40,80 C62.09125,80 80,62.09125 80,40 L80,40 C80,17.90875 62.09125,0 40,0 Z" id="path-3"></path>
        <path d="M40,0 C17.9083333,0 0,17.90875 0,40 L0,40 C0,62.09125 17.9083333,80 40,80 L40,80 C62.09125,80 80,62.09125 80,40 L80,40" id="path-5"></path>
        <path d="M40,0 C17.9083333,0 0,17.90875 0,40 L0,40 C0,62.09125 17.9083333,80 40,80 L40,80 C62.09125,80 80,62.09125 80,40 L80,40 C80,17.90875 62.09125,0 40,0 Z" id="path-7"></path>
        <path d="M40,0 C17.9083333,0 0,17.90875 0,40 L0,40 C0,62.09125 17.9083333,80 40,80 L40,80 C62.09125,80 80,62.09125 80,40 L80,40" id="path-9"></path>
        <path d="M40,0 C17.9083333,0 0,17.90875 0,40 L0,40 C0,62.09125 17.9083333,80 40,80 L40,80 C62.09125,80 80,62.09125 80,40 L80,40" id="path-11"></path>
        <path d="M40,0 C17.9083333,0 0,17.90875 0,40 L0,40 C0,62.09125 17.9083333,80 40,80 L40,80 C62.09125,80 80,62.09125 80,40 L80,40" id="path-13"></path>
        <path d="M40,0 C17.9083333,0 0,17.90875 0,40 L0,40 C0,62.09125 17.9083333,80 40,80 L40,80 C62.09125,80 80,62.09125 80,40 L80,40" id="path-15"></path>
        <path d="M40,0 C17.9083333,0 0,17.90875 0,40 L0,40 C0,62.09125 17.9083333,80 40,80 L40,80 C62.09125,80 80,62.09125 80,40 L80,40" id="path-17"></path>
        <path d="M40,0 C17.9083333,0 0,17.90875 0,40 L0,40 C0,62.09125 17.9083333,80 40,80 L40,80 C62.09125,80 80,62.09125 80,40 L80,40" id="path-19"></path>
        <path d="M40,0 C17.9083333,0 0,17.90875 0,40 L0,40 C0,62.09125 17.9083333,80 40,80 L40,80 C62.09125,80 80,62.09125 80,40 L80,40" id="path-21"></path>
        <path d="M40,0 C17.9083333,0 0,17.90875 0,40 L0,40 C0,62.09125 17.9083333,80 40,80 L40,80 C62.09125,80 80,62.09125 80,40 L80,40" id="path-23"></path>
        <path d="M40,0 C17.9083333,0 0,17.90875 0,40 L0,40 C0,62.09125 17.9083333,80 40,80 L40,80 C62.09125,80 80,62.09125 80,40 L80,40 C80,17.90875 62.09125,0 40,0 Z" id="path-25"></path>
        <path d="M40,0 C17.9083333,0 0,17.90875 0,40 L0,40 C0,62.09125 17.9083333,80 40,80 L40,80 C62.09125,80 80,62.09125 80,40 L80,40 C80,17.90875 62.09125,0 40,0 Z" id="path-27"></path>
        <path d="M40,0 C17.9083333,0 0,17.90875 0,40 L0,40 C0,62.09125 17.9083333,80 40,80 L40,80 C62.09125,80 80,62.09125 80,40 L80,40" id="path-29"></path>
        <path d="M40,0 C17.9083333,0 0,17.90875 0,40 L0,40 C0,62.09125 17.9083333,80 40,80 L40,80 C62.09125,80 80,62.09125 80,40 L80,40" id="path-31"></path>
        <path d="M40,0 C17.9083333,0 0,17.90875 0,40 L0,40 C0,62.09125 17.9083333,80 40,80 L40,80 C62.09125,80 80,62.09125 80,40 L80,40" id="path-33"></path>
        <path d="M40,0 C17.9083333,0 0,17.90875 0,40 L0,40 C0,62.09125 17.9083333,80 40,80 L40,80 C62.09125,80 80,62.09125 80,40 L80,40" id="path-35"></path>
        <path d="M40,0 C17.9083333,0 0,17.90875 0,40 L0,40 C0,62.09125 17.9083333,80 40,80 L40,80 C62.09125,80 80,62.09125 80,40 L80,40" id="path-37"></path>
        <path d="M40,0 C17.9083333,0 0,17.90875 0,40 L0,40 C0,62.09125 17.9083333,80 40,80 L40,80 C62.09125,80 80,62.09125 80,40 L80,40" id="path-39"></path>
        <path d="M40,0 C17.9083333,0 0,17.90875 0,40 L0,40 C0,62.09125 17.9083333,80 40,80 L40,80 C62.09125,80 80,62.09125 80,40 L80,40" id="path-41"></path>
        <path d="M40,0 C17.9083333,0 0,17.90875 0,40 L0,40 C0,62.09125 17.9083333,80 40,80 L40,80 C62.09125,80 80,62.09125 80,40 L80,40" id="path-43"></path>
        <path d="M40,0 C17.9083333,0 0,17.90875 0,40 L0,40 C0,62.09125 17.9083333,80 40,80 L40,80 C62.09125,80 80,62.09125 80,40 L80,40 C80,17.90875 62.09125,0 40,0 Z" id="path-45"></path>
    </defs>
    <g id="V2" stroke="none" stroke-width="1" fill="none" fill-rule="evenodd">
        <g id="Desktop-HD-6.6" transform="translate(-278.000000, -978.000000)">
            <g id="Group-4" transform="translate(250.000000, 966.000000)">
                <g id="Group" transform="translate(28.000000, 12.000000)">
                    <path d="M40,80 C62.09125,80 80,62.09125 80,40 C80,17.90875 62.09125,0 40,0 C17.90875,0 0,17.90875 0,40 C0,62.09125 17.90875,80 40,80" id="Path" fill="#C1E1F5"></path>
                    <g id="Group-80">
                        <g id="Group-5">
                            <mask id="mask-2" fill="white">
                                <use xlink:href="#path-1"></use>
                            </mask>
                            <g id="Clip-4"></g>
                            <path d="M51.6930833,17.394875 C51.6705833,14.7540417 49.8718333,12.7140417 48.1493333,10.846125 C46.001,8.51570833 43.5530833,6.66154167 39.9793333,6.66154167 C36.5980833,6.66154167 35.8518333,7.98445833 33.7130833,10.1002917 C31.7593333,12.0332083 28.35225,14.6282083 28.35225,17.4807083 L28.35225,23.4627917 C28.35225,29.4382083 33.5539167,34.2819583 40.0239167,34.2819583 C46.14975,34.2819583 51.1526667,29.938625 51.6701667,24.4052917 L51.6930833,17.394875 Z" id="Fill-3" fill="#0039A6" mask="url(#mask-2)"></path>
                        </g>
                        <g id="Group-8">
                            <mask id="mask-4" fill="white">
                                <use xlink:href="#path-3"></use>
                            </mask>
                            <g id="Clip-7"></g>
                            <path d="M49.9293333,20.3483333 C49.8864167,14.88625 45.5101667,10.4708333 40.0376667,10.4708333 C34.5389167,10.4708333 30.1439167,14.92875 30.1439167,20.4275 L30.1439167,26.6241667 C30.1439167,32.1233333 34.5389167,36.5808333 40.0376667,36.5808333 C45.2439167,36.5808333 49.4830833,32.5841667 49.9226667,27.4916667 L49.9293333,20.3483333 Z" id="Fill-6" fill="#FABE64" mask="url(#mask-4)"></path>
                        </g>
                        <g id="Group-11">
                            <mask id="mask-6" fill="white">
                                <use xlink:href="#path-5"></use>
                            </mask>
                            <g id="Clip-10"></g>
                            <path d="M45.909125,43.32425 C44.409125,39.4138333 47.6249583,34.4671667 48.8237083,31.15925 L39.9407917,31.15925 L31.071625,31.15925 C32.166625,33.6400833 35.631625,39.7013333 33.9857917,43.32425 C32.9695417,45.56175 29.7795417,50.0413333 29.7795417,50.0413333 L39.9407917,50.0413333 L50.115375,50.0413333 C50.115375,50.0413333 46.789125,45.6184167 45.909125,43.32425" id="Fill-9" fill="#FABE64" mask="url(#mask-6)"></path>
                        </g>
                        <g id="Group-14">
                            <mask id="mask-8" fill="white">
                                <use xlink:href="#path-7"></use>
                            </mask>
                            <g id="Clip-13"></g>
                            <path d="M32.1380833,12.9181667 C32.1380833,12.9181667 34.036,17.9694167 29.95475,22.8860833 L29.0789167,19.4044167 L31.04475,13.2656667 L32.1380833,12.9181667 Z" id="Fill-12" fill="#0039A6" mask="url(#mask-8)"></path>
                        </g>
                        <g id="Group-17">
                            <mask id="mask-10" fill="white">
                                <use xlink:href="#path-9"></use>
                            </mask>
                            <g id="Clip-16"></g>
                            <path d="M48.063375,13.8827917 C48.063375,13.8827917 47.3112917,17.7907083 49.3167083,22.886125 L51.2050417,21.7594583 C51.2050417,21.7594583 50.8204583,12.692375 48.063375,13.8827917" id="Fill-15" fill="#0039A6" mask="url(#mask-10)"></path>
                        </g>
                        <g id="Group-20">
                            <mask id="mask-12" fill="white">
                                <use xlink:href="#path-11"></use>
                            </mask>
                            <g id="Clip-19"></g>
                            <path d="M48.4315833,23.5235417 C48.4315833,22.4427083 49.2724167,21.566875 50.3528333,21.566875 C51.4336667,21.566875 52.3628333,22.4427083 52.3628333,23.5235417 C52.3628333,24.578125 51.3836667,25.435625 50.53575,25.4764583 L48.557,25.4360417 C48.557,25.4360417 48.4315833,23.679375 48.4315833,23.5235417" id="Fill-18" fill="#FABE64" mask="url(#mask-12)"></path>
                        </g>
                        <g id="Group-23">
                            <mask id="mask-14" fill="white">
                                <use xlink:href="#path-13"></use>
                            </mask>
                            <g id="Clip-22"></g>
                            <path d="M31.0445833,23.5235417 C31.0445833,22.4427083 30.20375,21.566875 29.1233333,21.566875 C28.0425,21.566875 27.11375,22.4427083 27.11375,23.5235417 C27.11375,24.578125 28.0925,25.435625 28.9404167,25.4764583 L30.9195833,25.4360417 C30.9195833,25.4360417 31.0445833,23.679375 31.0445833,23.5235417" id="Fill-21" fill="#FABE64" mask="url(#mask-14)"></path>
                        </g>
                        <g id="Group-26">
                            <mask id="mask-16" fill="white">
                                <use xlink:href="#path-15"></use>
                            </mask>
                            <g id="Clip-25"></g>
                            <path d="M39.943,28.6857083 C36.4746667,28.6857083 33.40925,26.911125 31.6171667,24.2215417 L29.7796667,21.5669583 C29.7796667,22.694875 29.5234167,26.0644583 29.5159167,26.2290417 C29.1584167,34.2819583 34.8575833,37.5682083 40.3563333,37.5682083 C45.5625833,37.5682083 50.0013333,34.994875 50.3175833,27.479875 L50.0013333,21.5669583 L48.2746667,24.2215417 C46.4909167,26.9157083 43.4234167,28.6857083 39.943,28.6857083" id="Fill-24" fill="#0039A6" mask="url(#mask-16)"></path>
                        </g>
                        <g id="Group-29">
                            <mask id="mask-18" fill="white">
                                <use xlink:href="#path-17"></use>
                            </mask>
                            <g id="Clip-28"></g>
                            <path d="M44.216,30.1129167 C44.216,32.67375 41.8755833,34.7495833 38.9889167,34.7495833 C36.10225,34.7495833 33.7618333,32.67375 33.7618333,30.1129167 C33.7618333,27.5520833 36.10225,25.47625 38.9889167,25.47625 C41.8755833,25.47625 44.216,27.5520833 44.216,30.1129167" id="Fill-27" fill="#0039A6" mask="url(#mask-18)"></path>
                        </g>
                        <g id="Group-33">
                            <mask id="mask-20" fill="white">
                                <use xlink:href="#path-19"></use>
                            </mask>
                            <g id="Clip-31"></g>
                            <path d="M41.2477917,17.8424167 C39.951125,18.73075 39.9032083,21.60575 40.7677917,23.3265833 C41.0790417,23.9453333 41.4507083,24.3528333 41.4915417,25.11825 C41.524875,25.74075 41.166125,26.4474167 40.0015417,26.4474167 C39.067375,26.4474167 38.5115417,25.8278333 38.5115417,25.23575" id="Fill-30" fill="#FABE64" mask="url(#mask-20)"></path>
                            <path d="M41.2477917,17.8424167 C39.951125,18.73075 39.9032083,21.60575 40.7677917,23.3265833 C41.0790417,23.9453333 41.4507083,24.3528333 41.4915417,25.11825 C41.524875,25.74075 41.166125,26.4474167 40.0015417,26.4474167 C39.067375,26.4474167 38.5115417,25.8278333 38.5115417,25.23575" id="Stroke-32" stroke="#001E5F" stroke-width="0.6" stroke-linecap="round" mask="url(#mask-20)"></path>
                        </g>
                        <g id="Group-36">
                            <mask id="mask-22" fill="white">
                                <use xlink:href="#path-21"></use>
                            </mask>
                            <g id="Clip-35"></g>
                            <path d="M44.2925833,18.16775 C43.9563333,17.489 42.3305,17.0310833 41.4088333,17.74775" id="Stroke-34" stroke="#001E5F" stroke-width="0.6" stroke-linecap="round" mask="url(#mask-22)"></path>
                        </g>
                        <g id="Group-39">
                            <mask id="mask-24" fill="white">
                                <use xlink:href="#path-23"></use>
                            </mask>
                            <g id="Clip-38"></g>
                            <path d="M35.814375,18.16775 C36.150625,17.489 37.7764583,17.0310833 38.698125,17.74775" id="Stroke-37" stroke="#001E5F" stroke-width="0.6" stroke-linecap="round" mask="url(#mask-24)"></path>
                        </g>
                        <g id="Group-42">
                            <mask id="mask-26" fill="white">
                                <use xlink:href="#path-25"></use>
                            </mask>
                            <g id="Clip-41"></g>
                            <path d="M31.9552917,24.6980417 C31.9552917,24.6980417 31.4915417,24.3484583 31.3252917,22.3542917 C31.1590417,20.3605417 31.3252917,18.6659583 31.3252917,18.6659583 L29.7794583,21.5667917 L29.9544583,24.9580417 L31.9552917,24.6980417 Z" id="Fill-40" fill="#0039A6" mask="url(#mask-26)"></path>
                        </g>
                        <g id="Group-45">
                            <mask id="mask-28" fill="white">
                                <use xlink:href="#path-27"></use>
                            </mask>
                            <g id="Clip-44"></g>
                            <path d="M47.73675,24.958 C47.73675,24.958 48.2896667,24.3484167 48.4555,22.35425 C48.62175,20.3605 48.4555,18.6659167 48.4555,18.6659167 L50.0013333,21.56675 L49.8855,25.4763333 L47.73675,24.958 Z" id="Fill-43" fill="#0039A6" mask="url(#mask-28)"></path>
                        </g>
                        <g id="Group-48">
                            <mask id="mask-30" fill="white">
                                <use xlink:href="#path-29"></use>
                            </mask>
                            <g id="Clip-47"></g>
                            <path d="M35.392375,10.4710417 L34.804875,11.8927083 C34.804875,11.8927083 35.5544583,10.8347917 37.796125,11.4985417 C40.0377917,12.1622917 44.0815417,11.8960417 45.2590417,12.383125 C46.3357083,12.8289583 46.9015417,13.149375 47.7390417,14.210625 C47.817375,14.3102083 47.8977917,14.415625 47.9815417,14.5285417 C48.9602917,15.8489583 47.9815417,12.918125 47.9815417,12.918125 C47.9815417,12.918125 42.987375,5.904375 35.392375,10.4710417" id="Fill-46" fill="#0039A6" mask="url(#mask-30)"></path>
                        </g>
                        <g id="Group-51">
                            <mask id="mask-32" fill="white">
                                <use xlink:href="#path-31"></use>
                            </mask>
                            <g id="Clip-50"></g>
                            <path d="M53.14625,81.616375 C54.06875,82.2997083 55.6354167,83.4747083 56.6783333,84.332625 C56.7029167,84.301375 56.7266667,84.270125 56.7516667,84.238875 C57.42,83.4042917 58.1554167,82.558875 58.9070833,81.6909583 L54.785,79.001375 C54.2425,79.8430417 53.6895833,80.7047083 53.14625,81.616375" id="Fill-49" fill="#E8BD6D" mask="url(#mask-32)"></path>
                        </g>
                        <g id="Group-54">
                            <mask id="mask-34" fill="white">
                                <use xlink:href="#path-33"></use>
                            </mask>
                            <g id="Clip-53"></g>
                            <path d="M61.577,78.4872917 L56.972,75.483125 C56.5728333,76.1777083 56.1374167,76.8827083 55.6886667,77.5910417 C55.3936667,78.058125 55.09075,78.526875 54.7849167,79.0014583 L58.907,81.6910417 C59.2065833,81.3447917 59.50825,80.995625 59.8099167,80.641875 C60.3990833,79.9477083 60.9928333,79.239375 61.577,78.4872917" id="Fill-52" fill="#6C92D9" mask="url(#mask-34)"></path>
                        </g>
                        <g id="Group-57">
                            <mask id="mask-36" fill="white">
                                <use xlink:href="#path-35"></use>
                            </mask>
                            <g id="Clip-56"></g>
                            <path d="M62.9535833,76.5779167 C63.454,75.8095833 63.9415,74.9833333 64.354,73.97875 C64.5581667,73.4745833 64.7431667,72.9220833 64.8694167,72.2870833 C64.9935833,71.6533333 65.0615,70.9270833 64.9656667,70.11875 C64.91775,69.71625 64.8269167,69.2970833 64.6869167,68.8825 C64.6510833,68.7775 64.6148333,68.68 64.5715,68.5695833 L64.4873333,68.37625 L64.42275,68.23375 L64.39275,68.1645833 L64.38525,68.1475 L64.3444167,68.0704167 L64.34025,68.0608333 L64.32275,68.02375 L64.2531667,67.8741667 C64.0656667,67.4770833 63.8844167,67.0725 63.6881667,66.6795833 C63.48775,66.29 63.2915,65.8945833 63.0844167,65.5075 L62.4465,64.3583333 L61.77775,63.2316667 L61.0981667,62.1554167 L61.0810833,62.1283333 L60.36025,61.0470833 L59.7610833,60.1908333 L59.619,59.9875 C59.11775,59.2904167 58.6073333,58.6033333 58.089,57.9304167 C57.5706667,57.2595833 57.0460833,56.5970833 56.52025,55.9495833 C55.9948333,55.30125 55.4665,54.6620833 54.9465,54.0370833 L53.4069167,52.1829167 L53.4015,52.1766667 C51.62775,50.0408333 48.4585833,49.7470833 46.32275,51.5204167 C44.1869167,53.2941667 43.8931667,56.4633333 45.6669167,58.5991667 C45.8631667,58.8358333 46.0981667,59.0666667 46.32525,59.2570833 L48.1798333,60.7958333 L49.9773333,62.2991667 C50.5669167,62.79875 51.1423333,63.29875 51.709,63.8029167 C52.2744167,64.3070833 52.8260833,64.8170833 53.36775,65.3325 L54.0010833,65.95125 L54.1669167,66.1133333 L54.9435833,66.9075 L55.62025,67.63375 L55.6965,67.71625 L56.4244167,68.5408333 L57.1248333,69.3833333 C57.3535833,69.6670833 57.5706667,69.9566667 57.7960833,70.2441667 C58.0169167,70.5333333 58.2215,70.8304167 58.4369167,71.1245833 C58.4844167,71.1970833 58.5848333,71.32375 58.5898333,71.4925 C58.5944167,71.6479167 58.5844167,71.8045833 58.5265,72.0558333 C58.4110833,72.5625 58.2006667,73.0808333 57.91025,73.7020833 C57.63775,74.2841667 57.3185833,74.88 56.9719167,75.4829167 L61.5769167,78.4875 C62.0444167,77.8854167 62.5060833,77.2558333 62.9535833,76.5779167" id="Fill-55" fill="#05BE50" mask="url(#mask-36)"></path>
                        </g>
                        <g id="Group-60">
                            <mask id="mask-38" fill="white">
                                <use xlink:href="#path-37"></use>
                            </mask>
                            <g id="Clip-59"></g>
                            <path d="M26.8537083,81.616375 C25.9312083,82.2997083 24.3645417,83.4747083 23.321625,84.332625 C23.2970417,84.301375 23.2732917,84.270125 23.2482917,84.238875 C22.5799583,83.4042917 21.8445417,82.558875 21.092875,81.6909583 L25.2149583,79.001375 C25.7574583,79.8430417 26.310375,80.7047083 26.8537083,81.616375" id="Fill-58" fill="#E8BD6D" mask="url(#mask-38)"></path>
                        </g>
                        <g id="Group-63">
                            <mask id="mask-40" fill="white">
                                <use xlink:href="#path-39"></use>
                            </mask>
                            <g id="Clip-62"></g>
                            <path d="M18.4229583,78.4872917 L23.0279583,75.483125 C23.427125,76.1777083 23.8625417,76.8827083 24.3112917,77.5910417 C24.6062917,78.058125 24.9092083,78.526875 25.2150417,79.0014583 L21.0929583,81.6910417 C20.793375,81.3447917 20.4917083,80.995625 20.1900417,80.641875 C19.600875,79.9477083 19.007125,79.239375 18.4229583,78.4872917" id="Fill-61" fill="#6C92D9" mask="url(#mask-40)"></path>
                        </g>
                        <g id="Group-66">
                            <mask id="mask-42" fill="white">
                                <use xlink:href="#path-41"></use>
                            </mask>
                            <g id="Clip-65"></g>
                            <path d="M17.0463333,76.5779167 C16.5459167,75.8095833 16.0584167,74.9833333 15.6459167,73.97875 C15.44175,73.4745833 15.25675,72.9220833 15.1305,72.2870833 C15.0063333,71.6533333 14.9384167,70.9270833 15.03425,70.11875 C15.0825833,69.71625 15.173,69.2970833 15.313,68.8825 C15.3488333,68.7775 15.3850833,68.68 15.4284167,68.5695833 L15.5125833,68.37625 L15.5771667,68.23375 L15.6071667,68.1645833 L15.6146667,68.1475 L15.6555,68.0704167 L15.6596667,68.0608333 L15.6771667,68.02375 L15.74675,67.8741667 C15.93425,67.4770833 16.1155,67.0725 16.31175,66.6795833 C16.5121667,66.29 16.7084167,65.8945833 16.9155,65.5075 L17.5534167,64.3583333 L18.2225833,63.2316667 L18.90175,62.1554167 L18.91925,62.1283333 L19.6396667,61.0470833 L20.2388333,60.1908333 L20.3809167,59.9875 C20.8821667,59.2904167 21.3925833,58.6033333 21.9109167,57.9304167 C22.42925,57.2595833 22.9538333,56.5970833 23.4796667,55.9495833 C24.0050833,55.30125 24.5338333,54.6620833 25.0534167,54.0370833 L26.5934167,52.1829167 L26.5984167,52.1766667 C28.3721667,50.0408333 31.5413333,49.7470833 33.6771667,51.5204167 C35.813,53.2941667 36.10675,56.4633333 34.333,58.5991667 C34.1371667,58.8358333 33.90175,59.0666667 33.6746667,59.2570833 L31.8200833,60.7958333 L30.0225833,62.2991667 C29.433,62.79875 28.8575833,63.29875 28.2909167,63.8029167 C27.7255,64.3070833 27.17425,64.8170833 26.6321667,65.3325 L25.99925,65.95125 L25.833,66.1133333 L25.0563333,66.9075 L24.3796667,67.63375 L24.3034167,67.71625 L23.5755,68.5408333 L22.8750833,69.3833333 C22.6463333,69.6670833 22.42925,69.9566667 22.2038333,70.2441667 C21.983,70.5333333 21.7784167,70.8304167 21.563,71.1245833 C21.5155,71.1970833 21.4150833,71.32375 21.4100833,71.4925 C21.4055,71.6479167 21.4155,71.8045833 21.4734167,72.0558333 C21.5888333,72.5625 21.7996667,73.0808333 22.0896667,73.7020833 C22.3621667,74.2841667 22.6813333,74.88 23.028,75.4829167 L18.423,78.4875 C17.9555,77.8854167 17.4938333,77.2558333 17.0463333,76.5779167" id="Fill-64" fill="#05BE50" mask="url(#mask-42)"></path>
                        </g>
                        <g id="Group-69">
                            <mask id="mask-44" fill="white">
                                <use xlink:href="#path-43"></use>
                            </mask>
                            <g id="Clip-68"></g>
                            <path d="M27.20025,54.5027083 C27.204,54.2635417 27.1681667,51.5352083 27.1681667,51.5352083 C28.5131667,50.368125 31.0173333,48.1285417 32.94525,45.2322917 L46.88525,45.2322917 C48.2623333,47.0585417 51.2273333,49.9672917 52.73025,51.510625 C52.73025,51.510625 52.7756667,54.265625 52.7819167,54.5027083 C53.0010833,63.1510417 53.344,73.9872917 52.92775,84.6297917 L41.9715,84.6297917 L31.5669167,84.6297917 L27.1156667,84.6297917 C26.8710833,75.8260417 27.0369167,65.2222917 27.20025,54.5027083" id="Fill-67" fill="#05BE50" mask="url(#mask-44)"></path>
                        </g>
                        <mask id="mask-46" fill="white">
                            <use xlink:href="#path-45"></use>
                        </mask>
                        <g id="Clip-71"></g>
                        <polygon id="Fill-70" fill="#05BE50" mask="url(#mask-46)" points="32.9416667 47.9645833 46.9254167 47.9645833 46.9254167 45.2320833 32.9416667 45.2320833"></polygon>
                        <path d="M36.7465417,28.08275 C37.0182083,28.6348333 37.808625,29.104 38.8027917,29.3769167 C39.7969583,29.6498333 40.716125,29.6498333 41.2315417,29.314" id="Stroke-72" stroke="#001E5F" stroke-width="0.9" stroke-linecap="round" mask="url(#mask-46)"></path>
                        <path d="M32.9450833,45.2322917 C31.0171667,48.1285417 28.513,50.368125 27.168,51.535625 C27.168,51.535625 27.2038333,54.2635417 27.2000833,54.5027083 C27.03675,65.2222917 26.7475833,75.8260417 26.9921667,84.6297917 L34.9863333,84.6297917 L32.9450833,45.2322917 Z" id="Fill-73" fill="#05BE50" mask="url(#mask-46)"></path>
                        <path d="M54.228875,57.0604167 C54.2230417,56.8233333 52.730125,51.5104167 52.730125,51.5104167 C51.2272083,49.9670833 48.262625,47.05875 46.8855417,45.2320833 L44.8459583,84.6295833 L53.0509583,84.6295833 C53.3197083,77.7620833 53.2209583,71.67625 53.0580417,65.2866667 C52.9684583,61.7754167 54.3067917,60.1279167 54.228875,57.0604167" id="Fill-74" fill="#05BE50" mask="url(#mask-46)"></path>
                        <path d="M43.5625,22.2375833 C43.5625,22.61175 43.2591667,22.9150833 42.885,22.9150833 C42.5108333,22.9150833 42.2075,22.61175 42.2075,22.2375833 L42.2075,21.62175 C42.2075,21.2475833 42.5108333,20.94425 42.885,20.94425 C43.2591667,20.94425 43.5625,21.2475833 43.5625,21.62175 L43.5625,22.2375833 Z" id="Fill-75" fill="#001E5F" mask="url(#mask-46)"></path>
                        <path d="M37.9335833,22.2375833 C37.9335833,22.61175 37.63025,22.9150833 37.2560833,22.9150833 C36.8819167,22.9150833 36.5785833,22.61175 36.5785833,22.2375833 L36.5785833,21.62175 C36.5785833,21.2475833 36.8819167,20.94425 37.2560833,20.94425 C37.63025,20.94425 37.9335833,21.2475833 37.9335833,21.62175 L37.9335833,22.2375833 Z" id="Fill-76" fill="#001E5F" mask="url(#mask-46)"></path>
                        <path d="M63.0142917,85 L16.9855417,85 C15.658875,85 14.5834583,80.9541667 14.5834583,79.6154167 L14.5834583,79.1666667 L65.4167917,79.1666667 L65.4167917,79.6154167 C65.4167917,80.9541667 64.3409583,85 63.0142917,85" id="Fill-77" fill="#FFFFFF" mask="url(#mask-46)"></path>
                        <path d="M61.298875,47.5 L18.7009583,47.5 C17.1172083,47.5 15.8334583,48.7883333 15.8334583,50.3783333 L15.8334583,79.1666667 L64.1667917,79.1666667 L64.1667917,50.3783333 C64.1667917,48.7883333 62.882625,47.5 61.298875,47.5" id="Fill-78" fill="#FFFFFF" mask="url(#mask-46)"></path>
                        <path d="M42.0740833,63.333375 C42.0740833,64.4837917 41.1411667,65.4167083 39.99075,65.4167083 C38.8403333,65.4167083 37.9074167,64.4837917 37.9074167,63.333375 C37.9074167,62.1829583 38.8403333,61.2500417 39.99075,61.2500417 C41.1411667,61.2500417 42.0740833,62.1829583 42.0740833,63.333375" id="Fill-79" fill="#05BE50" mask="url(#mask-46)"></path>
                    </g>
                </g>
            </g>
        </g>
    </g>
</svg>