<?xml version="1.0" encoding="UTF-8"?>
<svg width="47px" height="80px" viewBox="0 0 47 80" version="1.1" xmlns="http://www.w3.org/2000/svg" xmlns:xlink="http://www.w3.org/1999/xlink">
    <title>Group 16@1.5x</title>
    <defs>
        <polygon id="path-1" points="0 0 46.4000281 0 46.4000281 80 0 80"></polygon>
        <path d="M3.25300048,0 C1.43037262,0.026400016 -0.025826136,1.53680093 0.000347371096,3.37520204 L0.000347371096,3.37520204 C0.0257277416,5.21200316 1.5231696,6.68080404 3.34579746,6.65520403 L3.34579746,6.65520403 C5.16763218,6.62880401 6.62383094,5.1184031 6.59765743,3.28080199 L6.59765743,3.28080199 C6.57227706,1.45920088 5.10021557,0 3.30058867,0 L3.30058867,0 C3.28472594,0 3.26886321,0 3.25300048,0" id="path-3"></path>
        <linearGradient x1="-0.00576314223%" y1="49.998674%" x2="100.006163%" y2="49.998674%" id="linearGradient-5">
            <stop stop-color="#04BD50" offset="0%"></stop>
            <stop stop-color="#04BD50" offset="100%"></stop>
        </linearGradient>
    </defs>
    <g id="V2" stroke="none" stroke-width="1" fill="none" fill-rule="evenodd">
        <g id="Desktop-HD-1.1" transform="translate(-496.000000, -1149.000000)">
            <g id="Group-16" transform="translate(496.000000, 1149.000000)">
                <g id="Group-3">
                    <mask id="mask-2" fill="white">
                        <use xlink:href="#path-1"></use>
                    </mask>
                    <g id="Clip-2"></g>
                    <path d="M39.821722,79.8951684 L6.82724035,80 C3.18277778,80.0111684 0.219619519,77.0407666 0.20772247,73.3647644 L-0.000110611446,6.78152411 C-0.0111832258,3.10552188 2.93373289,0.116720071 6.57819547,0.104720063 L39.5726771,-0.000111568692 C43.2163466,-0.0112800068 46.180298,2.95912179 46.192195,6.63512402 L46.4000281,73.2183643 C46.4111007,76.8943666 43.4661846,79.8839684 39.821722,79.8951684" id="Fill-1" fill="#001E5F" mask="url(#mask-2)"></path>
                </g>
                <g id="Group-6" transform="translate(20.376124, 68.608042)">
                    <mask id="mask-4" fill="white">
                        <use xlink:href="#path-3"></use>
                    </mask>
                    <g id="Clip-5"></g>
                    <path d="M3.25300048,0 C1.43037262,0.026400016 -0.025826136,1.53680093 0.000347371096,3.37520204 L0.000347371096,3.37520204 C0.0257277416,5.21200316 1.5231696,6.68080404 3.34579746,6.65520403 L3.34579746,6.65520403 C5.16763218,6.62880401 6.62383094,5.1184031 6.59765743,3.28080199 L6.59765743,3.28080199 C6.57227706,1.45920088 5.10021557,0 3.30058867,0 L3.30058867,0 C3.28472594,0 3.26886321,0 3.25300048,0" id="Fill-4" fill="url(#linearGradient-5)" mask="url(#mask-4)"></path>
                </g>
                <g id="Group-15" transform="translate(4.587502, 6.419204)">
                    <polygon id="Fill-7" fill="#FFFFFF" points="0 59.8160362 37.2250722 59.8160362 37.2250722 0 0 0"></polygon>
                    <path d="M9.73511699,20.9879327 L6.68154116,20.9879327 C5.80115956,20.9879327 5.08733664,20.2679323 5.08733664,19.3799317 L5.08733664,16.2999299 C5.08733664,15.4119293 5.80115956,14.6911289 6.68154116,14.6911289 L9.73511699,14.6911289 C10.6154986,14.6911289 11.3293215,15.4119293 11.3293215,16.2999299 L11.3293215,19.3799317 C11.3293215,20.2679323 10.6154986,20.9879327 9.73511699,20.9879327" id="Fill-9" fill="#0034A0"></path>
                    <path d="M30.5431344,20.9879327 L15.0047957,20.9879327 C14.1244141,20.9879327 13.4105912,20.2679323 13.4105912,19.3799317 L13.4105912,16.2999299 C13.4105912,15.4119293 14.1244141,14.6911289 15.0047957,14.6911289 L30.5431344,14.6911289 C31.423516,14.6911289 32.137339,15.4119293 32.137339,16.2999299 L32.137339,19.3799317 C32.137339,20.2679323 31.423516,20.9879327 30.5431344,20.9879327" id="Fill-10" fill="#0034A0"></path>
                    <path d="M9.73511699,30.4326584 L6.68154116,30.4326584 C5.80115956,30.4326584 5.08733664,29.712658 5.08733664,28.8246575 L5.08733664,25.7446556 C5.08733664,24.856655 5.80115956,24.1358546 6.68154116,24.1358546 L9.73511699,24.1358546 C10.6154986,24.1358546 11.3293215,24.856655 11.3293215,25.7446556 L11.3293215,28.8246575 C11.3293215,29.712658 10.6154986,30.4326584 9.73511699,30.4326584" id="Fill-11" fill="#0034A0"></path>
                    <path d="M30.5431344,30.4326584 L15.0047957,30.4326584 C14.1244141,30.4326584 13.4105912,29.712658 13.4105912,28.8246575 L13.4105912,25.7446556 C13.4105912,24.856655 14.1244141,24.1358546 15.0047957,24.1358546 L30.5431344,24.1358546 C31.423516,24.1358546 32.137339,24.856655 32.137339,25.7446556 L32.137339,28.8246575 C32.137339,29.712658 31.423516,30.4326584 30.5431344,30.4326584" id="Fill-12" fill="#0034A0"></path>
                    <path d="M14.1065686,48.2837092 C13.1246655,48.2837092 12.1887643,47.910909 11.4709757,47.2341086 C11.3805581,47.1501085 11.2885543,47.0533085 11.205275,46.9573084 L5.18378205,40.0357042 C3.92745371,38.5917034 4.07021829,36.384502 5.50262295,35.1165013 C6.13316653,34.5581009 6.94216584,34.2501007 7.78051121,34.2501007 C8.62282225,34.2501007 9.43340784,34.5581009 10.0631583,35.1173013 L14.0185304,38.6181034 L27.2202887,26.1708958 C27.8357627,25.5908955 28.6392101,25.2708953 29.4815211,25.2708953 C30.3952145,25.2708953 31.2771823,25.6572955 31.9005877,26.3308959 C33.0839475,27.6052967 33.0839475,29.6084979 31.902174,30.8900987 L16.9285485,47.0477085 C16.199656,47.834109 15.171751,48.2837092 14.1065686,48.2837092 Z" id="Fill-13" fill="#04BE50"></path>
                    <path d="M29.4809659,24.3383347 C28.4038865,24.3383347 27.3759815,24.747135 26.58919,25.4895354 L13.9989399,37.3599426 L10.671732,34.4151408 C9.87462971,33.7079404 8.84751785,33.3175402 7.78074915,33.3175402 C6.71794613,33.3175402 5.69242054,33.7079404 4.89293887,34.4151408 C3.0766561,36.0215418 2.89582096,38.8191435 4.48923235,40.6511446 L10.5115184,47.5735488 C10.6130399,47.6903489 10.7248721,47.8071489 10.8382907,47.914349 C11.7297762,48.7543495 12.890135,49.2167498 14.1068065,49.2167498 C15.4265858,49.2167498 16.7011562,48.6583495 17.6021594,47.6863489 L17.6679897,47.6151488 L32.5757849,31.5287391 C34.0898826,29.8871381 34.0890895,27.3255365 32.5757849,25.6935356 C31.7778895,24.831935 30.6500492,24.3383347 29.4809659,24.3383347 M29.4809659,26.2031359 C30.1186477,26.2031359 30.7555364,26.459936 31.2250733,26.9671363 C32.0864196,27.8967369 32.07135,29.3375378 31.2250733,30.2551383 L16.3148987,46.3431481 L16.2514478,46.4127481 C15.6732512,47.0359485 14.8904254,47.3511487 14.1068065,47.3511487 C13.3882248,47.3511487 12.6688499,47.0871485 12.1025504,46.5535482 C12.0327543,46.4871481 11.9637515,46.4151481 11.9010937,46.3431481 L5.87880763,39.4215439 C4.95718293,38.3607432 5.06108382,36.7471422 6.11278292,35.8167417 C6.59342369,35.3919414 7.18827612,35.1831413 7.78074915,35.1831413 C8.38115354,35.1831413 8.97838538,35.3967414 9.45268105,35.8167417 L14.0385968,39.8759441 L27.8518634,26.8519363 C28.3118826,26.418336 28.8972174,26.2031359 29.4809659,26.2031359" id="Fill-14" fill="#FFFFFF"></path>
                </g>
            </g>
        </g>
    </g>
</svg>