<?xml version="1.0" encoding="UTF-8"?>
<svg width="32px" height="32px" viewBox="0 0 32 32" version="1.1" xmlns="http://www.w3.org/2000/svg" xmlns:xlink="http://www.w3.org/1999/xlink">
    <title>Go@1.5x</title>
    <g id="V2" stroke="none" stroke-width="1" fill="none" fill-rule="evenodd">
        <g id="Desktop-HD-2.3" transform="translate(-963.000000, -771.000000)">
            <g id="Group-5" transform="translate(250.000000, 479.000000)">
                <g id="Group-4" transform="translate(0.000000, 256.000000)">
                    <g id="Group-24" transform="translate(713.000000, 36.000000)">
                        <path d="M22,16.8941175 C22,16.5344621 21.8617637,16.1966739 21.6061132,15.9423257 L17.8572477,12.2108299 C17.5747019,11.9297234 17.1166133,11.9297234 16.8346458,12.2108299 C16.5518108,12.4919365 16.5523892,12.9497058 16.8346458,13.2311001 L19.8926188,16.2723454 L9.71836626,16.2723454 C9.3186955,16.2726331 9,16.5986247 9,16.9965473 C9,16.9974105 9,17.0037404 9,17.0046036 C9,17.4022385 9.3186955,17.7305318 9.71836626,17.7305318 L19.892908,17.7305318 L16.8355134,20.7700507 C16.5526784,21.051445 16.5526784,21.5077757 16.8355134,21.7888823 C17.1180593,22.0705643 17.5761479,22.0702766 17.8586937,21.7885946 L21.6061132,18.0568111 C21.8620529,17.8030383 22,17.4643869 22,17.1047316 C22,17.0693415 22,16.9295075 22,16.8941175 Z" id="Path" fill="#FFFFFF" fill-rule="nonzero"></path>
                        <circle id="Oval" stroke="#FFFFFF" stroke-width="2" cx="16" cy="16" r="15"></circle>
                    </g>
                </g>
            </g>
        </g>
    </g>
</svg>