<?xml version="1.0" encoding="UTF-8"?>
<svg width="72px" height="72px" viewBox="0 0 72 72" version="1.1" xmlns="http://www.w3.org/2000/svg" xmlns:xlink="http://www.w3.org/1999/xlink">
    <title>Group@1.5x</title>
    <g id="V2" stroke="none" stroke-width="1" fill="none" fill-rule="evenodd">
        <g id="Desktop-HD-5.7" transform="translate(-280.000000, -1094.000000)">
            <g id="Group-4" transform="translate(250.000000, 1078.000000)">
                <g id="Group" transform="translate(30.000000, 16.000000)">
                    <path d="M36,72 C55.882125,72 72,55.882125 72,36 C72,16.117875 55.882125,0 36,0 C16.117875,0 0,16.117875 0,36 C0,55.882125 16.117875,72 36,72" id="Path" fill="#C1E1F5"></path>
                    <path d="M49.802925,16.416525 C49.802925,13.1004 47.915925,10.225275 45.15705,8.806275 L45.15705,17.366775 L37.343175,17.366775 L37.343175,8.806275 C34.5843,10.225275 32.696925,13.1004 32.696925,16.416525 C32.696925,19.904775 34.785675,22.905525 37.780425,24.2364 L38.58105,52.860525 C36.71655,53.827275 35.4423,55.77465 35.4423,58.019775 C35.4423,60.276525 36.729675,62.232525 38.6103,63.194025 L38.6103,57.06915 L43.889925,57.06915 L43.889925,63.194025 C45.770175,62.232525 47.05755,60.276525 47.05755,58.019775 C47.05755,55.8564 45.8748,53.9694 44.12055,52.970025 L44.723175,24.234525 C47.71605,22.9029 49.802925,19.90365 49.802925,16.416525" id="Path" fill="#0039A6"></path>
                    <path d="M22.125,59.52075 L22.125,44.72925 C22.125,42.60075 23.803875,40.875 25.875,40.875 C27.946125,40.875 29.625,42.60075 29.625,44.72925 L29.625,59.52075 C29.625,61.64925 27.946125,63.375 25.875,63.375 C23.803875,63.375 22.125,61.64925 22.125,59.52075 Z" id="Path" fill="#05BE50"></path>
                    <polygon id="Path" fill="#05BE50" points="24.1875 41.625 27.5625 41.625 27.5625 40.125 24.1875 40.125"></polygon>
                    <polygon id="Path" fill="#F3F3E3" points="23.4375 61.52925 24.1875 61.52925 24.1875 43.52925 23.4375 43.52925"></polygon>
                    <polygon id="Path" fill="#F3F3E3" points="25.5 61.5 26.25 61.5 26.25 43.5 25.5 43.5"></polygon>
                    <polygon id="Path" fill="#F3F3E3" points="27.5625 61.5 28.3125 61.5 28.3125 43.5 27.5625 43.5"></polygon>
                    <polygon id="Path" fill="#FFFFFF" points="24.217125 9.75 26.782875 9.75 27.375 16.083375 26.782875 17.350125 26.980125 38.25 24.612 38.25 24.414375 17.350125 23.625 16.083375"></polygon>
                    <path d="M26.8125,40.125 L24.9375,40.125 C24.419625,40.125 24,39.705375 24,39.1875 C24,38.669625 24.419625,38.25 24.9375,38.25 L26.8125,38.25 C27.330375,38.25 27.75,38.669625 27.75,39.1875 C27.75,39.705375 27.330375,40.125 26.8125,40.125" id="Path" fill="#FFFFFF"></path>
                </g>
            </g>
        </g>
    </g>
</svg>