<?xml version="1.0" encoding="UTF-8"?>
<svg width="52px" height="80px" viewBox="0 0 52 80" version="1.1" xmlns="http://www.w3.org/2000/svg" xmlns:xlink="http://www.w3.org/1999/xlink">
    <title>Group 69@1.5x</title>
    <defs>
        <polygon id="path-1" points="0 0 44.7231726 0 44.7231726 80 0 80"></polygon>
        <path d="M-4.28945668e-15,19.8163246 C-4.28945668e-15,30.7595719 8.87178944,39.6310393 19.8162388,39.6310393 L19.8162388,39.6310393 C30.7598833,39.6310393 39.6316727,30.7595719 39.6316727,19.8163246 L39.6316727,19.8163246 C39.6316727,8.87227236 30.7598833,0 19.8162388,0 L19.8162388,0 C8.87178944,0 -4.28945668e-15,8.87227236 -4.28945668e-15,19.8163246" id="path-3"></path>
        <path d="M-4.28945668e-15,19.8163246 C-4.28945668e-15,30.7595719 8.87178944,39.6310393 19.8162388,39.6310393 L19.8162388,39.6310393 C30.7598833,39.6310393 39.6316727,30.7595719 39.6316727,19.8163246 L39.6316727,19.8163246 C39.6316727,8.87227236 30.7598833,0 19.8162388,0 L19.8162388,0 C8.87178944,0 -4.28945668e-15,8.87227236 -4.28945668e-15,19.8163246" id="path-5"></path>
        <path d="M-4.28945668e-15,19.8163246 C-4.28945668e-15,30.7595719 8.87178944,39.6310393 19.8162388,39.6310393 L19.8162388,39.6310393 C30.7598833,39.6310393 39.6316727,30.7595719 39.6316727,19.8163246 L39.6316727,19.8163246 C39.6316727,8.87227236 30.7598833,0 19.8162388,0 L19.8162388,0 C8.87178944,0 -4.28945668e-15,8.87227236 -4.28945668e-15,19.8163246" id="path-7"></path>
        <path d="M-4.28945668e-15,19.8163246 C-4.28945668e-15,30.7595719 8.87178944,39.6310393 19.8162388,39.6310393 L19.8162388,39.6310393 C30.7598833,39.6310393 39.6316727,30.7595719 39.6316727,19.8163246 L39.6316727,19.8163246 C39.6316727,8.87227236 30.7598833,0 19.8162388,0 L19.8162388,0 C8.87178944,0 -4.28945668e-15,8.87227236 -4.28945668e-15,19.8163246" id="path-9"></path>
        <path d="M-4.28945668e-15,19.8163246 C-4.28945668e-15,30.7595719 8.87178944,39.6310393 19.8162388,39.6310393 L19.8162388,39.6310393 C30.7598833,39.6310393 39.6316727,30.7595719 39.6316727,19.8163246 L39.6316727,19.8163246 C39.6316727,8.87227236 30.7598833,0 19.8162388,0 L19.8162388,0 C8.87178944,0 -4.28945668e-15,8.87227236 -4.28945668e-15,19.8163246" id="path-11"></path>
        <path d="M-4.28945668e-15,19.8163246 C-4.28945668e-15,30.7595719 8.87178944,39.6310393 19.8162388,39.6310393 L19.8162388,39.6310393 C30.7598833,39.6310393 39.6316727,30.7595719 39.6316727,19.8163246 L39.6316727,19.8163246 C39.6316727,8.87227236 30.7598833,0 19.8162388,0 L19.8162388,0 C8.87178944,0 -4.28945668e-15,8.87227236 -4.28945668e-15,19.8163246" id="path-13"></path>
        <path d="M-4.28945668e-15,19.8163246 C-4.28945668e-15,30.7595719 8.87178944,39.6310393 19.8162388,39.6310393 L19.8162388,39.6310393 C30.7598833,39.6310393 39.6316727,30.7595719 39.6316727,19.8163246 L39.6316727,19.8163246 C39.6316727,8.87227236 30.7598833,0 19.8162388,0 L19.8162388,0 C8.87178944,0 -4.28945668e-15,8.87227236 -4.28945668e-15,19.8163246" id="path-15"></path>
        <path d="M-4.28945668e-15,19.8163246 C-4.28945668e-15,30.7595719 8.87178944,39.6310393 19.8162388,39.6310393 L19.8162388,39.6310393 C30.7598833,39.6310393 39.6316727,30.7595719 39.6316727,19.8163246 L39.6316727,19.8163246 C39.6316727,8.87227236 30.7598833,0 19.8162388,0 L19.8162388,0 C8.87178944,0 -4.28945668e-15,8.87227236 -4.28945668e-15,19.8163246" id="path-17"></path>
        <path d="M-4.28945668e-15,19.8163246 C-4.28945668e-15,30.7595719 8.87178944,39.6310393 19.8162388,39.6310393 L19.8162388,39.6310393 C30.7598833,39.6310393 39.6316727,30.7595719 39.6316727,19.8163246 L39.6316727,19.8163246 C39.6316727,8.87227236 30.7598833,0 19.8162388,0 L19.8162388,0 C8.87178944,0 -4.28945668e-15,8.87227236 -4.28945668e-15,19.8163246" id="path-19"></path>
        <path d="M-4.28945668e-15,19.8163246 C-4.28945668e-15,30.7595719 8.87178944,39.6310393 19.8162388,39.6310393 L19.8162388,39.6310393 C30.7598833,39.6310393 39.6316727,30.7595719 39.6316727,19.8163246 L39.6316727,19.8163246 C39.6316727,8.87227236 30.7598833,0 19.8162388,0 L19.8162388,0 C8.87178944,0 -4.28945668e-15,8.87227236 -4.28945668e-15,19.8163246" id="path-21"></path>
        <path d="M-4.28945668e-15,19.8163246 C-4.28945668e-15,30.7595719 8.87178944,39.6310393 19.8162388,39.6310393 L19.8162388,39.6310393 C30.7598833,39.6310393 39.6316727,30.7595719 39.6316727,19.8163246 L39.6316727,19.8163246 C39.6316727,8.87227236 30.7598833,0 19.8162388,0 L19.8162388,0 C8.87178944,0 -4.28945668e-15,8.87227236 -4.28945668e-15,19.8163246" id="path-23"></path>
    </defs>
    <g id="V2" stroke="none" stroke-width="1" fill="none" fill-rule="evenodd">
        <g id="Desktop-HD-1.1" transform="translate(-845.000000, -1149.000000)">
            <g id="Group-69" transform="translate(845.000000, 1149.000000)">
                <g id="Group-32">
                    <g id="Group-3">
                        <mask id="mask-2" fill="white">
                            <use xlink:href="#path-1"></use>
                        </mask>
                        <g id="Clip-2"></g>
                        <path d="M38.2033484,79.9863163 L6.55403244,80 C2.95122627,80.0016091 0.030184368,77.082283 0.028574535,73.4796076 L-0.000402624689,6.53874319 C-0.00120737472,2.93687267 2.91741978,0.0151318807 6.52022595,0.0135221061 L38.1695419,-0.00016164288 C41.7715432,-0.00177075199 44.69339,2.91755537 44.6949999,6.52023079 L44.7231726,73.4610952 C44.7247818,77.0629657 41.8061546,79.9847065 38.2033484,79.9863163" id="Fill-1" fill="#001E5F" mask="url(#mask-2)"></path>
                    </g>
                    <polygon id="Fill-4" fill="#FFFFFF" points="41.5403712 66.657866 3.23037131 66.6739638 3.20461398 6.67847162 41.5146139 6.66237388"></polygon>
                    <path d="M25.831541,73.9360591 C25.8323456,75.7760314 24.4036188,77.2682924 22.6408517,77.2690976 C20.8772797,77.2699022 19.4469431,75.779251 19.4461382,73.9384738 C19.4461382,72.0985015 20.8740601,70.6062405 22.6376321,70.6054353 C24.4003992,70.6046307 25.8307357,72.0960868 25.831541,73.9360591" id="Fill-6" fill="#5794DD"></path>
                    <path d="M25.5944928,28.3252708 L6.9928729,28.3252708 C6.62019657,28.3252708 6.31835289,28.0234381 6.31835289,27.6507753 C6.31835289,27.2781125 6.62019657,26.9762797 6.9928729,26.9762797 L25.5944928,26.9762797 C25.9671691,26.9762797 26.2690128,27.2781125 26.2690128,27.6507753 C26.2690128,28.0234381 25.9671691,28.3252708 25.5944928,28.3252708" id="Fill-8" fill="#99AED9"></path>
                    <path d="M16.5651007,35.4898943 L6.99222897,35.4898943 C6.62035756,35.4898943 6.31770896,35.1880616 6.31770896,34.8153988 C6.31770896,34.442736 6.62035756,34.1409033 6.99222897,34.1409033 L16.5651007,34.1409033 C16.937777,34.1409033 17.2396207,34.442736 17.2396207,34.8153988 C17.2396207,35.1880616 16.937777,35.4898943 16.5651007,35.4898943" id="Fill-10" fill="#99AED9"></path>
                    <path d="M22.5317051,46.2651617 L6.99279241,46.2651617 C6.62011608,46.2651617 6.3182724,45.963329 6.3182724,45.5906661 C6.3182724,45.2180033 6.62011608,44.9161706 6.99279241,44.9161706 L22.5317051,44.9161706 C22.9043814,44.9161706 23.2062251,45.2180033 23.2062251,45.5906661 C23.2062251,45.963329 22.9043814,46.2651617 22.5317051,46.2651617" id="Fill-12" fill="#001E5F"></path>
                    <path d="M22.5317051,24.7988182 L6.99279241,24.7988182 C6.62011608,24.7988182 6.3182724,24.4969855 6.3182724,24.1243227 C6.3182724,23.7516599 6.62011608,23.4498272 6.99279241,23.4498272 L22.5317051,23.4498272 C22.9043814,23.4498272 23.2062251,23.7516599 23.2062251,24.1243227 C23.2062251,24.4969855 22.9043814,24.7988182 22.5317051,24.7988182" id="Fill-14" fill="#001E5F"></path>
                    <path d="M18.4585057,39.0722061 L6.99247045,39.0722061 C6.61979412,39.0722061 6.31795044,38.7703734 6.31795044,38.3977106 C6.31795044,38.0250478 6.61979412,37.723215 6.99247045,37.723215 L18.4585057,37.723215 C18.831182,37.723215 19.1330257,38.0250478 19.1330257,38.3977106 C19.1330257,38.7703734 18.831182,39.0722061 18.4585057,39.0722061" id="Fill-16" fill="#001E5F"></path>
                    <path d="M18.4585057,31.8746627 L6.99247045,31.8746627 C6.61979412,31.8746627 6.31795044,31.57283 6.31795044,31.2001672 C6.31795044,30.8275044 6.61979412,30.5256716 6.99247045,30.5256716 L18.4585057,30.5256716 C18.831182,30.5256716 19.1330257,30.8275044 19.1330257,31.2001672 C19.1330257,31.57283 18.831182,31.8746627 18.4585057,31.8746627" id="Fill-18" fill="#001E5F"></path>
                    <path d="M29.0454917,35.4793503 L21.3351967,35.4793503 C20.9633253,35.4793503 20.6606767,35.1775176 20.6606767,34.8048548 C20.6606767,34.432192 20.9633253,34.1303593 21.3351967,34.1303593 L29.0454917,34.1303593 C29.418168,34.1303593 29.7200117,34.432192 29.7200117,34.8048548 C29.7200117,35.1775176 29.418168,35.4793503 29.0454917,35.4793503" id="Fill-20" fill="#99AED9"></path>
                    <path d="M28.8868426,31.8641187 L21.3037245,31.8641187 C20.9310482,31.8641187 20.6292045,31.5622859 20.6292045,31.1896231 C20.6292045,30.8169603 20.9310482,30.5151276 21.3037245,30.5151276 L28.8868426,30.5151276 C29.259519,30.5151276 29.5613627,30.8169603 29.5613627,31.1896231 C29.5613627,31.5622859 29.259519,31.8641187 28.8868426,31.8641187" id="Fill-22" fill="#001E5F"></path>
                    <path d="M26.059815,17.4839222 L12.3528922,17.4839222 C11.9077734,17.4839222 11.5471708,17.1225278 11.5471708,16.6774252 C11.5471708,16.2323225 11.9077734,15.8709281 12.3528922,15.8709281 L26.059815,15.8709281 C26.5049338,15.8709281 26.8663413,16.2323225 26.8663413,16.6774252 C26.8663413,17.1225278 26.5049338,17.4839222 26.059815,17.4839222" id="Fill-24" fill="#001E5F"></path>
                    <path d="M18.4585057,49.8190609 L6.99247045,49.8190609 C6.61979412,49.8190609 6.31795044,49.5172282 6.31795044,49.1445654 C6.31795044,48.7719026 6.61979412,48.4700699 6.99247045,48.4700699 L18.4585057,48.4700699 C18.831182,48.4700699 19.1330257,48.7719026 19.1330257,49.1445654 C19.1330257,49.5172282 18.831182,49.8190609 18.4585057,49.8190609" id="Fill-26" fill="#99AED9"></path>
                    <path d="M18.4585057,42.7478848 L6.99247045,42.7478848 C6.61979412,42.7478848 6.31795044,42.4460521 6.31795044,42.0733893 C6.31795044,41.7007265 6.61979412,41.3988937 6.99247045,41.3988937 L18.4585057,41.3988937 C18.831182,41.3988937 19.1330257,41.7007265 19.1330257,42.0733893 C19.1330257,42.4460521 18.831182,42.7478848 18.4585057,42.7478848" id="Fill-28" fill="#99AED9"></path>
                    <path d="M49.8095197,33.1287575 C49.8095197,44.0728097 40.9377302,52.9442772 29.9932808,52.9442772 C19.0488315,52.9442772 10.177042,44.0728097 10.177042,33.1287575 C10.177042,22.1847053 19.0488315,13.3132379 29.9932808,13.3132379 C40.9377302,13.3132379 49.8095197,22.1847053 49.8095197,33.1287575" id="Fill-30" fill="#FFFFFF"></path>
                </g>
                <g id="Group-66" transform="translate(10.177364, 13.312835)">
                    <g id="Group-35">
                        <mask id="mask-4" fill="white">
                            <use xlink:href="#path-3"></use>
                        </mask>
                        <g id="Clip-34"></g>
                        <path d="M26.064886,15.1656859 L-0.453087487,15.1656859 C-0.983527447,15.1656859 -1.41415776,14.7350712 -1.41415776,14.2038456 C-1.41415776,13.67262 -0.983527447,13.2428102 -0.453087487,13.2428102 L26.064886,13.2428102 C26.5961308,13.2428102 27.0267611,13.67262 27.0267611,14.2038456 C27.0267611,14.7350712 26.5961308,15.1656859 26.064886,15.1656859" id="Fill-33" fill="#99AED9" mask="url(#mask-4)"></path>
                    </g>
                    <g id="Group-38">
                        <mask id="mask-6" fill="white">
                            <use xlink:href="#path-5"></use>
                        </mask>
                        <g id="Clip-37"></g>
                        <path d="M13.1933055,25.3790615 L-0.452443554,25.3790615 C-0.98368843,25.3790615 -1.41431875,24.9484468 -1.41431875,24.4172212 C-1.41431875,23.8859956 -0.98368843,23.4553809 -0.452443554,23.4553809 L13.1933055,23.4553809 C13.7245504,23.4553809 14.1551807,23.8859956 14.1551807,24.4172212 C14.1551807,24.9484468 13.7245504,25.3790615 13.1933055,25.3790615" id="Fill-36" fill="#99AED9" mask="url(#mask-6)"></path>
                    </g>
                    <g id="Group-41">
                        <mask id="mask-8" fill="white">
                            <use xlink:href="#path-7"></use>
                        </mask>
                        <g id="Clip-40"></g>
                        <path d="M21.6987775,40.7395301 L-0.452524045,40.7395301 C-0.983768922,40.7395301 -1.41439924,40.3089154 -1.41439924,39.7776898 C-1.41439924,39.2464642 -0.983768922,38.8166544 -0.452524045,38.8166544 L21.6987775,38.8166544 C22.2300224,38.8166544 22.6606527,39.2464642 22.6606527,39.7776898 C22.6606527,40.3089154 22.2300224,40.7395301 21.6987775,40.7395301" id="Fill-39" fill="#001E5F" mask="url(#mask-8)"></path>
                    </g>
                    <g id="Group-44">
                        <mask id="mask-10" fill="white">
                            <use xlink:href="#path-9"></use>
                        </mask>
                        <g id="Clip-43"></g>
                        <path d="M21.6987775,10.1386015 L-0.452524045,10.1386015 C-0.983768922,10.1386015 -1.41439924,9.70798682 -1.41439924,9.17676122 C-1.41439924,8.64553562 -0.983768922,8.21492093 -0.452524045,8.21492093 L21.6987775,8.21492093 C22.2300224,8.21492093 22.6606527,8.64553562 22.6606527,9.17676122 C22.6606527,9.70798682 22.2300224,10.1386015 21.6987775,10.1386015" id="Fill-42" fill="#001E5F" mask="url(#mask-10)"></path>
                    </g>
                    <g id="Group-47">
                        <mask id="mask-12" fill="white">
                            <use xlink:href="#path-11"></use>
                        </mask>
                        <g id="Clip-46"></g>
                        <path d="M15.892271,30.4857492 L-0.453167978,30.4857492 C-0.983607939,30.4857492 -1.41423826,30.0551345 -1.41423826,29.5239089 C-1.41423826,28.9926833 -0.983607939,28.5620686 -0.453167978,28.5620686 L15.892271,28.5620686 C16.4235159,28.5620686 16.8541462,28.9926833 16.8541462,29.5239089 C16.8541462,30.0551345 16.4235159,30.4857492 15.892271,30.4857492" id="Fill-45" fill="#001E5F" mask="url(#mask-12)"></path>
                    </g>
                    <g id="Group-50">
                        <mask id="mask-14" fill="white">
                            <use xlink:href="#path-13"></use>
                        </mask>
                        <g id="Clip-49"></g>
                        <path d="M15.892271,20.2254488 L-0.453167978,20.2254488 C-0.983607939,20.2254488 -1.41423826,19.7948341 -1.41423826,19.2636085 C-1.41423826,18.7323829 -0.983607939,18.3025731 -0.453167978,18.3025731 L15.892271,18.3025731 C16.4235159,18.3025731 16.8541462,18.7323829 16.8541462,19.2636085 C16.8541462,19.7948341 16.4235159,20.2254488 15.892271,20.2254488" id="Fill-48" fill="#001E5F" mask="url(#mask-14)"></path>
                    </g>
                    <g id="Group-53">
                        <mask id="mask-16" fill="white">
                            <use xlink:href="#path-15"></use>
                        </mask>
                        <g id="Clip-52"></g>
                        <path d="M30.984455,25.3640905 L19.9933205,25.3640905 C19.4628805,25.3640905 19.0322502,24.9334759 19.0322502,24.4022503 C19.0322502,23.8710247 19.4628805,23.4412149 19.9933205,23.4412149 L30.984455,23.4412149 C31.5156999,23.4412149 31.9463302,23.8710247 31.9463302,24.4022503 C31.9463302,24.9334759 31.5156999,25.3640905 30.984455,25.3640905" id="Fill-51" fill="#99AED9" mask="url(#mask-16)"></path>
                    </g>
                    <g id="Group-56">
                        <mask id="mask-18" fill="white">
                            <use xlink:href="#path-17"></use>
                        </mask>
                        <g id="Clip-55"></g>
                        <path d="M30.7583539,20.2104779 L19.9483256,20.2104779 C19.4178857,20.2104779 18.9872553,19.7798632 18.9872553,19.2486376 L18.9872553,19.2486376 C18.9872553,18.717412 19.4178857,18.2876022 19.9483256,18.2876022 L30.7583539,18.2876022 C31.2895988,18.2876022 31.7202291,18.717412 31.7202291,19.2486376 L31.7202291,19.2486376 C31.7202291,19.7798632 31.2895988,20.2104779 30.7583539,20.2104779" id="Fill-54" fill="#001E5F" mask="url(#mask-18)"></path>
                    </g>
                    <g id="Group-59">
                        <mask id="mask-20" fill="white">
                            <use xlink:href="#path-19"></use>
                        </mask>
                        <g id="Clip-58"></g>
                        <path d="M26.7282176,-0.289115507 L7.18887007,-0.289115507 C6.55379096,-0.289115507 6.03944933,-0.803438472 6.03944933,-1.43849453 C6.03944933,-2.07355058 6.55379096,-2.58787355 7.18887007,-2.58787355 L26.7282176,-2.58787355 C27.3632967,-2.58787355 27.8776384,-2.07355058 27.8776384,-1.43849453 C27.8776384,-0.803438472 27.3632967,-0.289115507 26.7282176,-0.289115507" id="Fill-57" fill="#001E5F" mask="url(#mask-20)"></path>
                    </g>
                    <g id="Group-62">
                        <mask id="mask-22" fill="white">
                            <use xlink:href="#path-21"></use>
                        </mask>
                        <g id="Clip-61"></g>
                        <path d="M15.892271,45.8058125 L-0.453167978,45.8058125 C-0.983607939,45.8058125 -1.41423826,45.3751978 -1.41423826,44.8439722 C-1.41423826,44.3127466 -0.983607939,43.8829368 -0.453167978,43.8829368 L15.892271,43.8829368 C16.4235159,43.8829368 16.8541462,44.3127466 16.8541462,44.8439722 C16.8541462,45.3751978 16.4235159,45.8058125 15.892271,45.8058125" id="Fill-60" fill="#99AED9" mask="url(#mask-22)"></path>
                    </g>
                    <g id="Group-65">
                        <mask id="mask-24" fill="white">
                            <use xlink:href="#path-23"></use>
                        </mask>
                        <g id="Clip-64"></g>
                        <path d="M15.892271,35.7255653 L-0.453167978,35.7255653 C-0.983607939,35.7255653 -1.41423826,35.2949506 -1.41423826,34.7637251 C-1.41423826,34.2324995 -0.983607939,33.8026897 -0.453167978,33.8026897 L15.892271,33.8026897 C16.4235159,33.8026897 16.8541462,34.2324995 16.8541462,34.7637251 C16.8541462,35.2949506 16.4235159,35.7255653 15.892271,35.7255653" id="Fill-63" fill="#99AED9" mask="url(#mask-24)"></path>
                    </g>
                </g>
                <path d="M29.9932808,15.2209012 C20.1185655,15.2209012 12.0846941,23.254481 12.0846941,33.128838 C12.0846941,43.003195 20.1185655,51.0367749 29.9932808,51.0367749 C39.8679962,51.0367749 47.9018676,43.003195 47.9018676,33.128838 C47.9018676,23.254481 39.8679962,15.2209012 29.9932808,15.2209012 M29.9932808,54.8519405 C18.0145138,54.8519405 8.26938995,45.1071704 8.26938995,33.128838 C8.26938995,21.1505057 18.0145138,11.4057355 29.9932808,11.4057355 C41.9720479,11.4057355 51.7171717,21.1505057 51.7171717,33.128838 C51.7171717,45.1071704 41.9720479,54.8519405 29.9932808,54.8519405" id="Fill-67" fill="#04BE50"></path>
            </g>
        </g>
    </g>
</svg>